#!OML:ASF H:\LiuWeirdWalks\Patient Classification 1\Patient 1\Session 1\male.ASF
:FULLY-SPECIFIED
:DEGREES
1149
root 2.17357 18.135 26.8365 3.21423 4.4678 3.37464
lowerback 9.91515 -1.89883 4.84309
upperback 2.21889 -1.72477 7.51127
thorax -3.15571 -0.870044 5.37138
lowerneck -20.8363 1.56099 5.3083
upperneck 29.272 5.48437 -15.4533
head 14.171 0.888561 -6.25107
rclavicle 1.11319e-014 4.77083e-014
rhumerus -21.6246 -32.1549 -6.51038
rradius 31.9204
rwrist -0.30818
rhand -21.9757 -3.72215
rfingers 7.12502
rthumb 4.43225 -33.6558
lclavicle 1.11319e-014 4.77083e-014
lhumerus -23.6388 4.61849 15.3548
lradius 36.4761
lwrist 34.8876
lhand -32.6222 0.970662
lfingers 7.12502
lthumb -5.84948 30.8699
rfemur -1.51307 7.91285 15.5256
rtibia 23.9736
rfoot -12.1104 -27.28
rtoes -3.2866
lfemur -24.7299 2.13272 -20.3863
ltibia 21.5104
lfoot -4.61695 10.0681
ltoes -18.9233
1150
root 2.18784 18.1337 26.9078 3.32181 4.38855 3.37184
lowerback 9.84981 -1.85346 4.67852
upperback 2.16986 -1.68811 7.41258
thorax -3.1714 -0.851207 5.35211
lowerneck -20.848 1.55571 5.28928
upperneck 29.3142 5.4498 -15.3361
head 14.1802 0.885011 -6.20642
rclavicle -3.33958e-014 6.36111e-015
rhumerus -21.6793 -32.3372 -6.25146
rradius 31.7579
rwrist 0.0353582
rhand -21.8234 -3.37612
rfingers 7.12502
rthumb 4.57934 -33.3066
lclavicle -3.33958e-014 6.36111e-015
lhumerus -23.6875 4.64432 15.3191
lradius 36.4019
lwrist 34.7151
lhand -32.5261 0.950385
lfingers 7.12502
lthumb -5.75664 30.8522
rfemur -1.24299 7.80543 15.4705
rtibia 23.6841
rfoot -12.1243 -27.0972
rtoes -3.5381
lfemur -24.7806 2.03596 -20.4006
ltibia 20.4969
lfoot -4.37096 10.4574
ltoes -18.8842
1151
root 2.2021 18.1323 26.98 3.43349 4.28125 3.39577
lowerback 9.73486 -1.92556 4.21413
upperback 2.25721 -1.85188 7.39643
thorax -2.99231 -0.930629 5.60952
lowerneck -21.1078 1.75803 5.48435
upperneck 29.2613 5.68793 -15.4014
head 14.2598 0.993494 -6.23038
rclavicle 1.35174e-014 1.90833e-014
rhumerus -20.9077 -32.8893 -6.52076
rradius 31.3178
rwrist 0.368295
rhand -21.8639 -3.18793
rfingers 7.12502
rthumb 4.54016 -33.1193
lclavicle 1.35174e-014 1.90833e-014
lhumerus -24.2268 5.11956 15.0887
lradius 36.4384
lwrist 34.3196
lhand -32.3398 0.974445
lfingers 7.12502
lthumb -5.57682 30.8811
rfemur -1.00022 7.72291 15.3823
rtibia 23.4378
rfoot -12.1723 -26.9113
rtoes -3.8317
lfemur -24.801 1.92705 -20.4292
ltibia 19.5083
lfoot -4.13856 10.8633
ltoes -18.7985
1152
root 2.21662 18.1304 27.0532 3.54358 4.14971 3.43295
lowerback 9.58378 -2.09364 3.51869
upperback 2.45003 -2.17462 7.44551
thorax -2.65716 -1.09124 6.08176
lowerneck -21.5341 2.13792 5.88428
upperneck 29.1011 6.15211 -15.6412
head 14.3814 1.19637 -6.32196
rclavicle 3.97569e-015 6.04305e-014
rhumerus -19.4638 -33.7207 -7.22768
rradius 30.6355
rwrist 0.757586
rhand -22.0419 -3.02467
rfingers 7.12502
rthumb 4.36829 -32.9596
lclavicle 3.97569e-015 6.04305e-014
lhumerus -25.1755 5.94996 14.688
lradius 36.5652
lwrist 33.6843
lhand -32.0572 1.05046
lfingers 7.12502
lthumb -5.30396 30.9641
rfemur -0.767833 7.65419 15.2746
rtibia 23.2105
rfoot -12.2344 -26.7133
rtoes -4.12509
lfemur -24.8045 1.81549 -20.4607
ltibia 18.5832
lfoot -3.9466 11.2741
ltoes -18.6816
1153
root 2.2315 18.127 27.1263 3.64756 3.99964 3.46026
lowerback 9.42057 -2.34026 2.67077
upperback 2.71983 -2.61925 7.53998
thorax -2.20579 -1.31896 6.69934
lowerneck -22.0718 2.65939 6.44629
upperneck 28.8533 6.78872 -16.0078
head 14.5356 1.47246 -6.46116
rclavicle -3.10104e-014 5.08889e-014
rhumerus -17.4744 -34.8747 -8.3063
rradius 29.7317
rwrist 1.40424
rhand -22.262 -2.80567
rfingers 7.12502
rthumb 4.15575 -32.7449
lclavicle -3.10104e-014 5.08889e-014
lhumerus -26.4569 7.037 14.1214
lradius 36.7589
lwrist 32.8284
lhand -31.6649 1.18164
lfingers 7.12502
lthumb -4.9252 31.1044
rfemur -0.537385 7.59442 15.1765
rtibia 22.9925
rfoot -12.2966 -26.5137
rtoes -4.42762
lfemur -24.803 1.71343 -20.4764
ltibia 17.7487
lfoot -3.79747 11.6891
ltoes -18.5536
1154
root 2.24629 18.1221 27.1996 3.71198 3.84889 3.34733
lowerback 9.32704 -2.58647 1.95161
upperback 2.92679 -3.03678 7.66078
thorax -1.85177 -1.53762 7.2738
lowerneck -22.4032 3.16111 7.01588
upperneck 28.585 7.38921 -16.3716
head 14.6365 1.74144 -6.59945
rclavicle 4.29375e-014 3.49861e-014
rhumerus -15.4538 -36.1077 -9.37883
rradius 28.6576
rwrist 2.30407
rhand -22.4613 -2.38186
rfingers 7.12502
rthumb 3.96332 -32.3247
lclavicle 4.29375e-014 3.49861e-014
lhumerus -27.7737 7.92744 13.5471
lradius 36.9808
lwrist 32.0083
lhand -31.2721 1.32212
lfingers 7.12502
lthumb -4.54589 31.2533
rfemur -0.276682 7.5562 15.2446
rtibia 22.7756
rfoot -12.3436 -26.3401
rtoes -4.72503
lfemur -24.7815 1.62109 -20.3318
ltibia 17.028
lfoot -3.69146 12.0949
ltoes -18.466
